<?xml version="1.0" encoding="utf-8"?>
<!-- Generator: Adobe Illustrator 16.0.0, SVG Export Plug-In . SVG Version: 6.00 Build 0)  -->
<!DOCTYPE svg PUBLIC "-//W3C//DTD SVG 1.1//EN" "http://www.w3.org/Graphics/SVG/1.1/DTD/svg11.dtd">
<svg version="1.1" id="Layer_1" xmlns="http://www.w3.org/2000/svg" xmlns:xlink="http://www.w3.org/1999/xlink" x="0px" y="0px"
	 width="370.763px" height="139.326px" viewBox="50.424 0 370.763 139.326" enable-background="new 50.424 0 370.763 139.326"
	 xml:space="preserve">
<rect x="50.424" y="2.583" fill="#FFFFFF" width="369.984" height="103.581"/>
<g>
	<polygon fill="#F99D1C" points="50.424,117.577 402.161,117.577 396.315,109.964 50.424,109.964 	"/>
	<path fill="#004185" d="M106.036,77.946h16.887V46.552h-16.887V77.946z M245.707,54.104h16.291v-7.552h-16.291V54.104z
		 M295.085,77.946h15.796V46.552h-15.796V77.946z M327.172,93.044l-32.087-0.1c-4.63,0-8.501-1.539-11.617-4.621
		c-3.119-3.08-4.678-6.902-4.678-11.469V31.453h32.091v-2.879h-4.271V13.47h20.563L327.172,93.044L327.172,93.044z M278.294,69.203
		h-32.582v8.744h30.596v15.1h-30.596c-4.591,0-8.451-1.426-11.591-4.275c-3.14-2.854-4.705-6.568-4.705-11.146V47.872
		c0-4.777,1.313-8.69,3.944-11.742c2.768-3.313,6.484-4.877,11.158-4.677h16.984v0.1c4.833,0,8.739,1.129,11.725,3.385
		c3.377,2.526,5.063,6.111,5.063,10.76L278.294,69.203L278.294,69.203z M228.82,93.044h-29.802c-4.691,0-8.481-0.992-11.36-2.982
		c-3.29-2.324-4.93-5.637-4.93-9.951V57.083h-13.61V46.552h-10.433v31.396h4.171v15.098h-20.462V46.552h-3.229
		c0.02,0.396,0.049,0.787,0.049,1.192v28.71c0,4.84-1.499,8.813-4.498,11.924c-2.997,3.111-6.933,4.666-11.793,4.666h-17.235
		c-4.819,0-8.716-1.559-11.689-4.676c-2.972-3.117-4.454-7.094-4.454-11.938V47.67c0-4.977,1.493-8.986,4.482-12.038
		c2.723-2.789,5.979-4.181,9.765-4.181h0.101h19.032c4.673,0,8.391,1.292,11.156,3.876c1.706,1.482,2.987,3.261,3.843,5.319V31.45
		h17.488v8.939c1.848-3.175,3.836-5.396,5.959-6.656c2.517-1.52,6.26-2.284,11.224-2.284v0.095c3.841,0,6.955,1.574,9.34,4.71
		c1.001,1.245,1.778,2.598,2.344,4.053c0.777-1.797,1.839-3.398,3.211-4.777c2.641-2.656,5.614-3.981,8.919-3.981l32.417-0.1v18.875
		h-15.101v-3.776H199.02v31.396h14.704v-5.264h15.101L228.82,93.044L228.82,93.044z M89.442,93.044H74.343
		c-10.665,0-15.996-4.725-15.996-14.174V45.36h-7.925V31.553h7.925V13.47h16.291v18.083h14.804V45.36H74.639v32.586h14.804
		L89.442,93.044L89.442,93.044z M402.275,77.946v15.098h-20.468V46.552h-3.222c0.02,0.396,0.047,0.787,0.047,1.192v28.71
		c0,4.84-1.502,8.813-4.5,11.924c-3.001,3.111-6.931,4.666-11.791,4.666h-17.235c-4.823,0-8.719-1.559-11.688-4.676
		c-2.974-3.117-4.458-7.094-4.458-11.938V47.67c0-4.977,1.497-8.986,4.483-12.038c2.724-2.789,5.977-4.181,9.766-4.181h0.102h19.032
		c4.672,0,8.391,1.292,11.155,3.876c1.704,1.482,2.981,3.261,3.844,5.319V31.45h17.479v8.939c1.854-3.175,3.847-5.396,5.96-6.656
		c2.52-1.52,6.263-2.284,11.229-2.284v0.095c3.757,0,6.813,1.516,9.172,4.514V0H50.424v109.995h345.078l25.683,29.33V57.083h-12.647
		V46.552h-10.432v31.396L402.275,77.946L402.275,77.946z"/>
	<path fill="#FFFFFF" d="M303.198,23.1h-2.28v1.802h-2.515v-7.47h0.996v-2.284h-3.457v12.038h7.256V23.1L303.198,23.1z
		 M288.628,27.186v-2.284h-0.846l0.447-1.55h3.412l0.436,1.55h-0.796v2.284h4.044l-3.499-12.038h-3.771l-3.504,12.038H288.628z
		 M289.947,17.518l1.071,3.748h-2.18L289.947,17.518z M278.361,24.93h-1.188v-6.874l2.942,9.13h3.411V15.148h-3.452v2.284h1.171
		v5.832l-2.632-8.115h-3.726v12.038h3.471L278.361,24.93L278.361,24.93z M270.337,20.216h-2.867V17.45h2.867V20.216z
		 M272.532,22.271c-0.146-0.459-0.465-0.854-0.967-1.188c0.82-0.209,1.234-0.663,1.234-1.364v-4.553l-8.72-0.019v2.302H265v9.735
		h3.563V24.93h-1.098v-2.626h2.498l1.469,4.882h2.557L272.532,22.271z M260.492,27.186c0.733,0,1.331-0.232,1.78-0.696
		c0.455-0.468,0.685-1.073,0.685-1.811v-7.065c0-0.74-0.226-1.336-0.668-1.788c-0.444-0.449-1.043-0.677-1.797-0.677h-3.429
		c-0.75,0-1.346,0.228-1.793,0.677c-0.447,0.452-0.668,1.048-0.668,1.788v7.065c0,0.738,0.226,1.343,0.68,1.811
		c0.449,0.464,1.048,0.696,1.781,0.696H260.492z M257.065,17.432h3.429v7.47h-3.429V17.432z M248.218,24.902v-1.907h0.822v-2.283
		h-3.289v3.927c0,0.745,0.209,1.346,0.628,1.809c0.437,0.496,1.019,0.738,1.746,0.738h5.124V15.148h-3.455v2.284h0.992v7.47H248.218
		z"/>
	<path fill="#004185" d="M363.337,75.062v-4.764h-1.751l0.938-3.223h7.11l0.908,3.223h-1.66v4.764h8.431l-7.302-25.093h-7.86
		l-7.298,25.093H363.337z M366.097,54.904l2.239,7.813h-4.546L366.097,54.904z M348.21,75.062v-8.206
		c0-2.006-0.935-3.508-2.789-4.514l-8.864-4.793v-2.816h6.704v2.441h4.764v-7.205l-16.604,0.033c0.021,3.492,0.021,6.031,0,7.619
		c-0.021,1.965,1.097,3.566,3.346,4.803l8.298,4.486l0.009,0.028v3.36h-6.669v-2.501h-4.764v7.265H348.21z"/>
	<polygon fill="#004185" points="356.753,45.979 347.778,77.163 351.963,78.37 360.938,47.189 	"/>
</g>
</svg>
