<?xml version="1.0" encoding="utf-8"?>
<!-- Generator: Adobe Illustrator 16.0.0, SVG Export Plug-In . SVG Version: 6.00 Build 0)  -->
<!DOCTYPE svg PUBLIC "-//W3C//DTD SVG 1.1//EN" "http://www.w3.org/Graphics/SVG/1.1/DTD/svg11.dtd">
<svg version="1.1" id="Layer_1" xmlns="http://www.w3.org/2000/svg" xmlns:xlink="http://www.w3.org/1999/xlink" x="0px" y="0px"
	 width="421.188px" height="139.326px" viewBox="0 0 421.188 139.326" enable-background="new 0 0 421.188 139.326"
	 xml:space="preserve">
<rect x="31.094" transform="matrix(-1 -1.103004e-004 1.103004e-004 -1 451.4951 106.188)" fill="#FFFFFF" width="389.313" height="106.163"/>
<g>
	<polygon fill="#F99D1C" points="0.003,117.577 402.164,117.577 395.48,109.965 0.003,109.965 	"/>
	<path fill="#004185" d="M106.039,77.946h16.887V46.552h-16.887V77.946z M245.71,54.104h16.291v-7.552H245.71V54.104z
		 M295.088,77.946h15.796V46.552h-15.796V77.946z M327.175,93.045l-32.087-0.101c-4.63,0-8.501-1.538-11.617-4.62
		c-3.12-3.08-4.678-6.902-4.678-11.47V31.453h32.091v-2.879h-4.271V13.47h20.563L327.175,93.045L327.175,93.045z M278.297,69.203
		h-32.582v8.744h30.595v15.099h-30.595c-4.591,0-8.451-1.425-11.591-4.275c-3.14-2.853-4.705-6.568-4.705-11.146V47.872
		c0-4.777,1.313-8.69,3.944-11.742c2.768-3.313,6.485-4.877,11.158-4.677h16.985v0.1c4.833,0,8.739,1.129,11.725,3.385
		c3.376,2.526,5.063,6.111,5.063,10.76L278.297,69.203L278.297,69.203z M228.823,93.045h-29.802c-4.691,0-8.481-0.992-11.36-2.983
		c-3.29-2.324-4.93-5.637-4.93-9.951V57.083h-13.61V46.552h-10.433v31.396h4.171v15.099h-20.462V46.552h-3.229
		c0.02,0.396,0.049,0.787,0.049,1.192v28.71c0,4.84-1.499,8.813-4.498,11.924c-2.997,3.112-6.933,4.667-11.793,4.667h-17.235
		c-4.819,0-8.716-1.56-11.689-4.677c-2.972-3.117-4.454-7.094-4.454-11.938V47.67c0-4.977,1.493-8.986,4.482-12.038
		c2.723-2.789,5.979-4.181,9.765-4.181h0.101h19.032c4.673,0,8.391,1.292,11.156,3.876c1.706,1.482,2.987,3.261,3.843,5.319V31.45
		h17.488v8.939c1.848-3.175,3.836-5.396,5.959-6.656c2.517-1.52,6.26-2.284,11.224-2.284v0.095c3.841,0,6.955,1.574,9.34,4.71
		c1.001,1.245,1.778,2.598,2.344,4.053c0.777-1.797,1.839-3.398,3.211-4.777c2.641-2.656,5.614-3.981,8.919-3.981l32.417-0.1v18.875
		h-15.101v-3.776h-14.705v31.396h14.704v-5.264h15.1L228.823,93.045L228.823,93.045z M89.445,93.045H74.346
		c-10.665,0-15.996-4.726-15.996-14.175V45.36h-7.848V31.553h7.848V13.47h16.291v18.083h14.804V45.36H74.642v32.586h14.804
		L89.445,93.045L89.445,93.045z M402.278,77.946v15.099h-20.467V46.552h-3.222c0.019,0.396,0.047,0.787,0.047,1.192v28.71
		c0,4.84-1.502,8.813-4.5,11.924c-3.001,3.112-6.931,4.667-11.791,4.667h-17.236c-4.823,0-8.718-1.56-11.688-4.677
		c-2.974-3.117-4.458-7.094-4.458-11.938V47.67c0-4.977,1.497-8.986,4.483-12.038c2.724-2.789,5.977-4.181,9.766-4.181h0.101h19.033
		c4.672,0,8.39,1.292,11.155,3.876c1.704,1.482,2.981,3.261,3.844,5.319V31.45h17.479v8.939c1.855-3.175,3.847-5.396,5.96-6.656
		c2.52-1.52,6.263-2.284,11.229-2.284v0.095c3.757,0,6.813,1.516,9.172,4.514V0H0.001v109.995h395.504l25.682,29.33V57.083h-12.647
		V46.552h-10.432v31.396L402.278,77.946L402.278,77.946z"/>
	<path fill="#FFFFFF" d="M303.201,23.1h-2.28v1.802h-2.515v-7.47h0.996v-2.284h-3.457v12.038h7.256V23.1L303.201,23.1z
		 M288.631,27.186v-2.284h-0.846l0.447-1.55h3.413l0.435,1.55h-0.796v2.284h4.044l-3.499-12.038h-3.771l-3.503,12.038H288.631z
		 M289.95,17.518l1.071,3.748h-2.179L289.95,17.518z M278.364,24.93h-1.188v-6.874l2.942,9.13h3.411V15.148h-3.452v2.284h1.171
		v5.832l-2.632-8.115h-3.726v12.038h3.471L278.364,24.93L278.364,24.93z M270.34,20.216h-2.867V17.45h2.867V20.216z M272.535,22.271
		c-0.146-0.459-0.465-0.854-0.966-1.188c0.819-0.209,1.234-0.663,1.234-1.364v-4.553l-8.72-0.019v2.302h0.92v9.735h3.563V24.93
		h-1.097v-2.626h2.498l1.469,4.882h2.556L272.535,22.271z M260.495,27.186c0.733,0,1.331-0.232,1.781-0.696
		c0.454-0.468,0.684-1.073,0.684-1.811v-7.065c0-0.74-0.225-1.336-0.668-1.788c-0.445-0.449-1.043-0.677-1.797-0.677h-3.429
		c-0.75,0-1.346,0.228-1.793,0.677c-0.447,0.452-0.668,1.048-0.668,1.788v7.065c0,0.738,0.226,1.343,0.68,1.811
		c0.449,0.464,1.048,0.696,1.781,0.696H260.495z M257.068,17.432h3.429v7.47h-3.429V17.432z M248.22,24.902v-1.907h0.823v-2.283
		h-3.289v3.927c0,0.745,0.209,1.346,0.628,1.809c0.437,0.496,1.019,0.738,1.746,0.738h5.124V15.148h-3.455v2.284h0.992v7.47H248.22z
		"/>
	<path fill="#004185" d="M363.34,75.062v-4.763h-1.751l0.937-3.224h7.111l0.908,3.224h-1.66v4.763h8.43l-7.301-25.093h-7.861
		l-7.298,25.093H363.34z M366.1,54.904l2.239,7.813h-4.546L366.1,54.904z M348.213,75.062v-8.206c0-2.006-0.935-3.508-2.789-4.514
		l-8.864-4.793v-2.816h6.704v2.441h4.763v-7.205l-16.604,0.033c0.021,3.492,0.021,6.031,0,7.619
		c-0.021,1.965,1.097,3.566,3.346,4.803l8.297,4.486l0.009,0.028v3.361h-6.669v-2.502h-4.763v7.265H348.213z"/>
	<polygon fill="#004185" points="356.756,45.979 347.781,77.164 351.966,78.37 360.941,47.189 	"/>
</g>
</svg>
